{
 "cells": [
  {
   "cell_type": "code",
   "execution_count": 17,
   "id": "b501da5c",
   "metadata": {},
   "outputs": [],
   "source": [
    "import numpy as np\n",
    "import matplotlib.pyplot as plt\n",
    "from PIL import Image\n",
    "import subprocess"
   ]
  },
  {
   "cell_type": "code",
   "execution_count": 18,
   "id": "5daf9a0b",
   "metadata": {},
   "outputs": [],
   "source": [
    "num_outputs = 318"
   ]
  },
  {
   "cell_type": "code",
   "execution_count": null,
   "id": "3112075f",
   "metadata": {},
   "outputs": [],
   "source": [
    "# for i in range(num_outputs):\n",
    "#     file_in = f\"images/failfint_{i:04d}.ppm\"\n",
    "#     file_out = f\"vids/ffint_{i:04d}.png\"\n",
    "#     im = Image.open(file_in)\n",
    "#     im.save(file_out, \"PNG\")\n",
    "#     file_in = f\"images/failgamc_{i:04d}.ppm\"\n",
    "#     file_out = f\"vids/fgamc_{i:04d}.png\"\n",
    "#     im = Image.open(file_in)\n",
    "#     im.save(file_out, \"PNG\")\n",
    "#     file_in = f\"images/failu2p3_{i:04d}.ppm\"\n",
    "#     file_out = f\"vids/fu2p3_{i:04d}.png\"\n",
    "#     im = Image.open(file_in)\n",
    "#     im.save(file_out, \"PNG\")\n",
    "#     file_in = f\"images/failu2p2_{i:04d}.ppm\"\n",
    "#     file_out = f\"vids/fu2p2_{i:04d}.png\"\n",
    "#     im = Image.open(file_in)\n",
    "#     im.save(file_out, \"PNG\")\n",
    "#     file_in = f\"images/failu2p1_{i:04d}.ppm\"\n",
    "#     file_out = f\"vids/fu2p1_{i:04d}.png\"\n",
    "#     im = Image.open(file_in)\n",
    "#     im.save(file_out, \"PNG\")"
   ]
  },
  {
   "cell_type": "code",
   "execution_count": 20,
   "id": "fd4a9498",
   "metadata": {},
   "outputs": [],
   "source": [
    "for i in range(num_outputs):\n",
    "    file_in = f\"images/im_lgam_{i:04d}.ppm\"\n",
    "    file_out = f\"vids/im_lgam_{i:04d}.png\"\n",
    "    im = Image.open(file_in)\n",
    "    im.save(file_out, \"PNG\")\n",
    "    file_in = f\"images/im_lbsq_{i:04d}.ppm\"\n",
    "    file_out = f\"vids/im_lbsq_{i:04d}.png\"\n",
    "    im = Image.open(file_in)\n",
    "    im.save(file_out, \"PNG\")\n",
    "    file_in = f\"images/im_lu_{i:04d}.ppm\"\n",
    "    file_out = f\"vids/im_lu_{i:04d}.png\"\n",
    "    im = Image.open(file_in)\n",
    "    im.save(file_out, \"PNG\")\n",
    "    file_in = f\"images/im_lrho_{i:04d}.ppm\"\n",
    "    file_out = f\"vids/im_lrho_{i:04d}.png\"\n",
    "    im = Image.open(file_in)\n",
    "    im.save(file_out, \"PNG\")\n",
    "    file_in = f\"images/im_gam_{i:04d}.ppm\"\n",
    "    file_out = f\"vids/im_gam_{i:04d}.png\"\n",
    "    im = Image.open(file_in)\n",
    "    im.save(file_out, \"PNG\")\n",
    "    file_in = f\"images/im_bsq_{i:04d}.ppm\"\n",
    "    file_out = f\"vids/im_bsq_{i:04d}.png\"\n",
    "    im = Image.open(file_in)\n",
    "    im.save(file_out, \"PNG\")\n",
    "    file_in = f\"images/im_u_{i:04d}.ppm\"\n",
    "    file_out = f\"vids/im_u_{i:04d}.png\"\n",
    "    im = Image.open(file_in)\n",
    "    im.save(file_out, \"PNG\")\n",
    "    file_in = f\"images/im_rho_{i:04d}.ppm\"\n",
    "    file_out = f\"vids/im_rho_{i:04d}.png\"\n",
    "    im = Image.open(file_in)\n",
    "    im.save(file_out, \"PNG\")"
   ]
  },
  {
   "cell_type": "code",
   "execution_count": 21,
   "id": "467ddbb0",
   "metadata": {},
   "outputs": [],
   "source": [
    "fileList = ['im_lgam', 'im_lbsq', 'im_lu', 'im_lrho', 'im_gam', 'im_bsq', 'im_u', 'im_rho']"
   ]
  },
  {
   "cell_type": "code",
   "execution_count": null,
   "id": "83d11ee9",
   "metadata": {},
   "outputs": [
    {
     "name": "stderr",
     "output_type": "stream",
     "text": [
      "ffmpeg version 4.4.2-0ubuntu0.22.04.1 Copyright (c) 2000-2021 the FFmpeg developers\n",
      "  built with gcc 11 (Ubuntu 11.2.0-19ubuntu1)\n",
      "  configuration: --prefix=/usr --extra-version=0ubuntu0.22.04.1 --toolchain=hardened --libdir=/usr/lib/x86_64-linux-gnu --incdir=/usr/include/x86_64-linux-gnu --arch=amd64 --enable-gpl --disable-stripping --enable-gnutls --enable-ladspa --enable-libaom --enable-libass --enable-libbluray --enable-libbs2b --enable-libcaca --enable-libcdio --enable-libcodec2 --enable-libdav1d --enable-libflite --enable-libfontconfig --enable-libfreetype --enable-libfribidi --enable-libgme --enable-libgsm --enable-libjack --enable-libmp3lame --enable-libmysofa --enable-libopenjpeg --enable-libopenmpt --enable-libopus --enable-libpulse --enable-librabbitmq --enable-librubberband --enable-libshine --enable-libsnappy --enable-libsoxr --enable-libspeex --enable-libsrt --enable-libssh --enable-libtheora --enable-libtwolame --enable-libvidstab --enable-libvorbis --enable-libvpx --enable-libwebp --enable-libx265 --enable-libxml2 --enable-libxvid --enable-libzimg --enable-libzmq --enable-libzvbi --enable-lv2 --enable-omx --enable-openal --enable-opencl --enable-opengl --enable-sdl2 --enable-pocketsphinx --enable-librsvg --enable-libmfx --enable-libdc1394 --enable-libdrm --enable-libiec61883 --enable-chromaprint --enable-frei0r --enable-libx264 --enable-shared\n",
      "  WARNING: library configuration mismatch\n",
      "  avcodec     configuration: --prefix=/usr --extra-version=0ubuntu0.22.04.1 --toolchain=hardened --libdir=/usr/lib/x86_64-linux-gnu --incdir=/usr/include/x86_64-linux-gnu --arch=amd64 --enable-gpl --disable-stripping --enable-gnutls --enable-ladspa --enable-libaom --enable-libass --enable-libbluray --enable-libbs2b --enable-libcaca --enable-libcdio --enable-libcodec2 --enable-libdav1d --enable-libflite --enable-libfontconfig --enable-libfreetype --enable-libfribidi --enable-libgme --enable-libgsm --enable-libjack --enable-libmp3lame --enable-libmysofa --enable-libopenjpeg --enable-libopenmpt --enable-libopus --enable-libpulse --enable-librabbitmq --enable-librubberband --enable-libshine --enable-libsnappy --enable-libsoxr --enable-libspeex --enable-libsrt --enable-libssh --enable-libtheora --enable-libtwolame --enable-libvidstab --enable-libvorbis --enable-libvpx --enable-libwebp --enable-libx265 --enable-libxml2 --enable-libxvid --enable-libzimg --enable-libzmq --enable-libzvbi --enable-lv2 --enable-omx --enable-openal --enable-opencl --enable-opengl --enable-sdl2 --enable-pocketsphinx --enable-librsvg --enable-libmfx --enable-libdc1394 --enable-libdrm --enable-libiec61883 --enable-chromaprint --enable-frei0r --enable-libx264 --enable-shared --enable-version3 --disable-doc --disable-programs --enable-libaribb24 --enable-libopencore_amrnb --enable-libopencore_amrwb --enable-libtesseract --enable-libvo_amrwbenc --enable-libsmbclient\n",
      "  libavutil      56. 70.100 / 56. 70.100\n",
      "  libavcodec     58.134.100 / 58.134.100\n",
      "  libavformat    58. 76.100 / 58. 76.100\n",
      "  libavdevice    58. 13.100 / 58. 13.100\n",
      "  libavfilter     7.110.100 /  7.110.100\n",
      "  libswscale      5.  9.100 /  5.  9.100\n",
      "  libswresample   3.  9.100 /  3.  9.100\n",
      "  libpostproc    55.  9.100 / 55.  9.100\n",
      "Input #0, image2, from 'vids/im_lgam_%04d.png':\n",
      "  Duration: 00:00:31.80, start: 0.000000, bitrate: N/A\n",
      "  Stream #0:0: Video: png, rgb24(pc), 256x256, 10 fps, 10 tbr, 10 tbn, 10 tbc\n",
      "Stream mapping:\n",
      "  Stream #0:0 -> #0:0 (png (native) -> h264 (libx264))\n",
      "Press [q] to stop, [?] for help\n",
      "[libx264 @ 0x5639247057c0] using cpu capabilities: MMX2 SSE2Fast SSSE3 SSE4.2 AVX FMA3 BMI2 AVX2\n",
      "[libx264 @ 0x5639247057c0] profile High, level 1.2, 4:2:0, 8-bit\n",
      "[libx264 @ 0x5639247057c0] 264 - core 163 r3060 5db6aa6 - H.264/MPEG-4 AVC codec - Copyleft 2003-2021 - http://www.videolan.org/x264.html - options: cabac=1 ref=3 deblock=1:0:0 analyse=0x3:0x113 me=hex subme=7 psy=1 psy_rd=1.00:0.00 mixed_ref=1 me_range=16 chroma_me=1 trellis=1 8x8dct=1 cqm=0 deadzone=21,11 fast_pskip=1 chroma_qp_offset=-2 threads=8 lookahead_threads=1 sliced_threads=0 nr=0 decimate=1 interlaced=0 bluray_compat=0 constrained_intra=0 bframes=3 b_pyramid=2 b_adapt=1 b_bias=0 direct=1 weightb=1 open_gop=0 weightp=2 keyint=250 keyint_min=10 scenecut=40 intra_refresh=0 rc_lookahead=40 rc=crf mbtree=1 crf=23.0 qcomp=0.60 qpmin=0 qpmax=69 qpstep=4 ip_ratio=1.40 aq=1:1.00\n",
      "Output #0, mp4, to 'vids/im_lgam.mp4':\n",
      "  Metadata:\n",
      "    encoder         : Lavf58.76.100\n",
      "  Stream #0:0: Video: h264 (avc1 / 0x31637661), yuv420p(tv, progressive), 256x256, q=2-31, 10 fps, 10240 tbn\n",
      "    Metadata:\n",
      "      encoder         : Lavc58.134.100 libx264\n",
      "    Side data:\n",
      "      cpb: bitrate max/min/avg: 0/0/0 buffer size: 0 vbv_delay: N/A\n",
      "frame=  318 fps=0.0 q=-1.0 Lsize=     366kB time=00:00:31.50 bitrate=  95.3kbits/s speed=  99x    \n",
      "video:362kB audio:0kB subtitle:0kB other streams:0kB global headers:0kB muxing overhead: 1.235944%\n",
      "[libx264 @ 0x5639247057c0] frame I:5     Avg QP:16.08  size:  3661\n",
      "[libx264 @ 0x5639247057c0] frame P:98    Avg QP:20.46  size:  1886\n",
      "[libx264 @ 0x5639247057c0] frame B:215   Avg QP:23.00  size:   775\n",
      "[libx264 @ 0x5639247057c0] consecutive B-frames:  7.2%  6.3%  4.7% 81.8%\n",
      "[libx264 @ 0x5639247057c0] mb I  I16..4: 35.4% 47.1% 17.5%\n",
      "[libx264 @ 0x5639247057c0] mb P  I16..4:  4.4%  7.1%  1.3%  P16..4: 34.9% 18.6% 10.3%  0.0%  0.0%    skip:23.4%\n",
      "[libx264 @ 0x5639247057c0] mb B  I16..4:  0.6%  0.7%  0.5%  B16..8: 30.5%  6.5%  2.0%  direct: 4.9%  skip:54.3%  L0:39.2% L1:48.1% BI:12.7%\n",
      "[libx264 @ 0x5639247057c0] 8x8 transform intra:50.9% inter:81.6%\n",
      "[libx264 @ 0x5639247057c0] coded y,uvDC,uvAC intra: 37.9% 76.3% 60.7% inter: 10.0% 28.5% 12.1%\n",
      "[libx264 @ 0x5639247057c0] i16 v,h,dc,p: 51% 23%  9% 17%\n",
      "[libx264 @ 0x5639247057c0] i8 v,h,dc,ddl,ddr,vr,hd,vl,hu: 29% 17% 21%  5%  4%  6%  6%  7%  5%\n",
      "[libx264 @ 0x5639247057c0] i4 v,h,dc,ddl,ddr,vr,hd,vl,hu: 19% 22% 10%  7% 10%  9%  9%  8%  5%\n",
      "[libx264 @ 0x5639247057c0] i8c dc,h,v,p: 31% 22% 31% 16%\n",
      "[libx264 @ 0x5639247057c0] Weighted P-Frames: Y:11.2% UV:6.1%\n",
      "[libx264 @ 0x5639247057c0] ref P L0: 62.9%  8.5% 18.8%  8.2%  1.7%\n",
      "[libx264 @ 0x5639247057c0] ref B L0: 84.5% 12.0%  3.5%\n",
      "[libx264 @ 0x5639247057c0] ref B L1: 95.5%  4.5%\n",
      "[libx264 @ 0x5639247057c0] kb/s:93.03\n",
      "ffmpeg version 4.4.2-0ubuntu0.22.04.1 Copyright (c) 2000-2021 the FFmpeg developers\n",
      "  built with gcc 11 (Ubuntu 11.2.0-19ubuntu1)\n",
      "  configuration: --prefix=/usr --extra-version=0ubuntu0.22.04.1 --toolchain=hardened --libdir=/usr/lib/x86_64-linux-gnu --incdir=/usr/include/x86_64-linux-gnu --arch=amd64 --enable-gpl --disable-stripping --enable-gnutls --enable-ladspa --enable-libaom --enable-libass --enable-libbluray --enable-libbs2b --enable-libcaca --enable-libcdio --enable-libcodec2 --enable-libdav1d --enable-libflite --enable-libfontconfig --enable-libfreetype --enable-libfribidi --enable-libgme --enable-libgsm --enable-libjack --enable-libmp3lame --enable-libmysofa --enable-libopenjpeg --enable-libopenmpt --enable-libopus --enable-libpulse --enable-librabbitmq --enable-librubberband --enable-libshine --enable-libsnappy --enable-libsoxr --enable-libspeex --enable-libsrt --enable-libssh --enable-libtheora --enable-libtwolame --enable-libvidstab --enable-libvorbis --enable-libvpx --enable-libwebp --enable-libx265 --enable-libxml2 --enable-libxvid --enable-libzimg --enable-libzmq --enable-libzvbi --enable-lv2 --enable-omx --enable-openal --enable-opencl --enable-opengl --enable-sdl2 --enable-pocketsphinx --enable-librsvg --enable-libmfx --enable-libdc1394 --enable-libdrm --enable-libiec61883 --enable-chromaprint --enable-frei0r --enable-libx264 --enable-shared\n",
      "  WARNING: library configuration mismatch\n",
      "  avcodec     configuration: --prefix=/usr --extra-version=0ubuntu0.22.04.1 --toolchain=hardened --libdir=/usr/lib/x86_64-linux-gnu --incdir=/usr/include/x86_64-linux-gnu --arch=amd64 --enable-gpl --disable-stripping --enable-gnutls --enable-ladspa --enable-libaom --enable-libass --enable-libbluray --enable-libbs2b --enable-libcaca --enable-libcdio --enable-libcodec2 --enable-libdav1d --enable-libflite --enable-libfontconfig --enable-libfreetype --enable-libfribidi --enable-libgme --enable-libgsm --enable-libjack --enable-libmp3lame --enable-libmysofa --enable-libopenjpeg --enable-libopenmpt --enable-libopus --enable-libpulse --enable-librabbitmq --enable-librubberband --enable-libshine --enable-libsnappy --enable-libsoxr --enable-libspeex --enable-libsrt --enable-libssh --enable-libtheora --enable-libtwolame --enable-libvidstab --enable-libvorbis --enable-libvpx --enable-libwebp --enable-libx265 --enable-libxml2 --enable-libxvid --enable-libzimg --enable-libzmq --enable-libzvbi --enable-lv2 --enable-omx --enable-openal --enable-opencl --enable-opengl --enable-sdl2 --enable-pocketsphinx --enable-librsvg --enable-libmfx --enable-libdc1394 --enable-libdrm --enable-libiec61883 --enable-chromaprint --enable-frei0r --enable-libx264 --enable-shared --enable-version3 --disable-doc --disable-programs --enable-libaribb24 --enable-libopencore_amrnb --enable-libopencore_amrwb --enable-libtesseract --enable-libvo_amrwbenc --enable-libsmbclient\n",
      "  libavutil      56. 70.100 / 56. 70.100\n",
      "  libavcodec     58.134.100 / 58.134.100\n",
      "  libavformat    58. 76.100 / 58. 76.100\n",
      "  libavdevice    58. 13.100 / 58. 13.100\n",
      "  libavfilter     7.110.100 /  7.110.100\n",
      "  libswscale      5.  9.100 /  5.  9.100\n",
      "  libswresample   3.  9.100 /  3.  9.100\n",
      "  libpostproc    55.  9.100 / 55.  9.100\n",
      "Input #0, image2, from 'vids/im_lbsq_%04d.png':\n",
      "  Duration: 00:00:31.80, start: 0.000000, bitrate: N/A\n",
      "  Stream #0:0: Video: png, rgb24(pc), 256x256, 10 fps, 10 tbr, 10 tbn, 10 tbc\n",
      "Stream mapping:\n",
      "  Stream #0:0 -> #0:0 (png (native) -> h264 (libx264))\n",
      "Press [q] to stop, [?] for help\n",
      "[libx264 @ 0x55e2e1b42040] using cpu capabilities: MMX2 SSE2Fast SSSE3 SSE4.2 AVX FMA3 BMI2 AVX2\n",
      "[libx264 @ 0x55e2e1b42040] profile High, level 1.2, 4:2:0, 8-bit\n",
      "[libx264 @ 0x55e2e1b42040] 264 - core 163 r3060 5db6aa6 - H.264/MPEG-4 AVC codec - Copyleft 2003-2021 - http://www.videolan.org/x264.html - options: cabac=1 ref=3 deblock=1:0:0 analyse=0x3:0x113 me=hex subme=7 psy=1 psy_rd=1.00:0.00 mixed_ref=1 me_range=16 chroma_me=1 trellis=1 8x8dct=1 cqm=0 deadzone=21,11 fast_pskip=1 chroma_qp_offset=-2 threads=8 lookahead_threads=1 sliced_threads=0 nr=0 decimate=1 interlaced=0 bluray_compat=0 constrained_intra=0 bframes=3 b_pyramid=2 b_adapt=1 b_bias=0 direct=1 weightb=1 open_gop=0 weightp=2 keyint=250 keyint_min=10 scenecut=40 intra_refresh=0 rc_lookahead=40 rc=crf mbtree=1 crf=23.0 qcomp=0.60 qpmin=0 qpmax=69 qpstep=4 ip_ratio=1.40 aq=1:1.00\n",
      "Output #0, mp4, to 'vids/im_lbsq.mp4':\n",
      "  Metadata:\n",
      "    encoder         : Lavf58.76.100\n",
      "  Stream #0:0: Video: h264 (avc1 / 0x31637661), yuv420p(tv, progressive), 256x256, q=2-31, 10 fps, 10240 tbn\n",
      "    Metadata:\n",
      "      encoder         : Lavc58.134.100 libx264\n",
      "    Side data:\n",
      "      cpb: bitrate max/min/avg: 0/0/0 buffer size: 0 vbv_delay: N/A\n",
      "frame=  318 fps=0.0 q=-1.0 Lsize=     359kB time=00:00:31.50 bitrate=  93.5kbits/s speed=97.5x    \n",
      "video:355kB audio:0kB subtitle:0kB other streams:0kB global headers:0kB muxing overhead: 1.245159%\n",
      "[libx264 @ 0x55e2e1b42040] frame I:2     Avg QP:12.28  size:  4280\n",
      "[libx264 @ 0x55e2e1b42040] frame P:98    Avg QP:19.77  size:  2219\n",
      "[libx264 @ 0x55e2e1b42040] frame B:218   Avg QP:22.93  size:   628\n",
      "[libx264 @ 0x55e2e1b42040] consecutive B-frames:  6.0%  5.0%  8.5% 80.5%\n",
      "[libx264 @ 0x55e2e1b42040] mb I  I16..4: 48.0% 31.2% 20.7%\n",
      "[libx264 @ 0x55e2e1b42040] mb P  I16..4:  2.4%  3.3%  1.3%  P16..4: 29.8% 19.6% 11.1%  0.0%  0.0%    skip:32.5%\n",
      "[libx264 @ 0x55e2e1b42040] mb B  I16..4:  0.3%  0.5%  0.2%  B16..8: 24.7%  5.8%  1.4%  direct: 2.9%  skip:64.2%  L0:38.0% L1:45.6% BI:16.4%\n",
      "[libx264 @ 0x55e2e1b42040] 8x8 transform intra:44.5% inter:57.7%\n",
      "[libx264 @ 0x55e2e1b42040] coded y,uvDC,uvAC intra: 34.2% 68.3% 49.3% inter: 10.5% 23.6% 11.1%\n",
      "[libx264 @ 0x55e2e1b42040] i16 v,h,dc,p: 40% 11%  3% 45%\n",
      "[libx264 @ 0x55e2e1b42040] i8 v,h,dc,ddl,ddr,vr,hd,vl,hu: 14% 17% 39%  4%  5%  6%  5%  6%  4%\n",
      "[libx264 @ 0x55e2e1b42040] i4 v,h,dc,ddl,ddr,vr,hd,vl,hu: 20% 22% 22%  5%  6%  7%  7%  6%  5%\n",
      "[libx264 @ 0x55e2e1b42040] i8c dc,h,v,p: 36% 19% 20% 25%\n",
      "[libx264 @ 0x55e2e1b42040] Weighted P-Frames: Y:26.5% UV:17.3%\n",
      "[libx264 @ 0x55e2e1b42040] ref P L0: 58.9%  7.8% 22.3%  7.5%  3.5%\n",
      "[libx264 @ 0x55e2e1b42040] ref B L0: 87.1% 10.7%  2.2%\n",
      "[libx264 @ 0x55e2e1b42040] ref B L1: 97.2%  2.8%\n",
      "[libx264 @ 0x55e2e1b42040] kb/s:91.29\n",
      "ffmpeg version 4.4.2-0ubuntu0.22.04.1 Copyright (c) 2000-2021 the FFmpeg developers\n",
      "  built with gcc 11 (Ubuntu 11.2.0-19ubuntu1)\n",
      "  configuration: --prefix=/usr --extra-version=0ubuntu0.22.04.1 --toolchain=hardened --libdir=/usr/lib/x86_64-linux-gnu --incdir=/usr/include/x86_64-linux-gnu --arch=amd64 --enable-gpl --disable-stripping --enable-gnutls --enable-ladspa --enable-libaom --enable-libass --enable-libbluray --enable-libbs2b --enable-libcaca --enable-libcdio --enable-libcodec2 --enable-libdav1d --enable-libflite --enable-libfontconfig --enable-libfreetype --enable-libfribidi --enable-libgme --enable-libgsm --enable-libjack --enable-libmp3lame --enable-libmysofa --enable-libopenjpeg --enable-libopenmpt --enable-libopus --enable-libpulse --enable-librabbitmq --enable-librubberband --enable-libshine --enable-libsnappy --enable-libsoxr --enable-libspeex --enable-libsrt --enable-libssh --enable-libtheora --enable-libtwolame --enable-libvidstab --enable-libvorbis --enable-libvpx --enable-libwebp --enable-libx265 --enable-libxml2 --enable-libxvid --enable-libzimg --enable-libzmq --enable-libzvbi --enable-lv2 --enable-omx --enable-openal --enable-opencl --enable-opengl --enable-sdl2 --enable-pocketsphinx --enable-librsvg --enable-libmfx --enable-libdc1394 --enable-libdrm --enable-libiec61883 --enable-chromaprint --enable-frei0r --enable-libx264 --enable-shared\n",
      "  WARNING: library configuration mismatch\n",
      "  avcodec     configuration: --prefix=/usr --extra-version=0ubuntu0.22.04.1 --toolchain=hardened --libdir=/usr/lib/x86_64-linux-gnu --incdir=/usr/include/x86_64-linux-gnu --arch=amd64 --enable-gpl --disable-stripping --enable-gnutls --enable-ladspa --enable-libaom --enable-libass --enable-libbluray --enable-libbs2b --enable-libcaca --enable-libcdio --enable-libcodec2 --enable-libdav1d --enable-libflite --enable-libfontconfig --enable-libfreetype --enable-libfribidi --enable-libgme --enable-libgsm --enable-libjack --enable-libmp3lame --enable-libmysofa --enable-libopenjpeg --enable-libopenmpt --enable-libopus --enable-libpulse --enable-librabbitmq --enable-librubberband --enable-libshine --enable-libsnappy --enable-libsoxr --enable-libspeex --enable-libsrt --enable-libssh --enable-libtheora --enable-libtwolame --enable-libvidstab --enable-libvorbis --enable-libvpx --enable-libwebp --enable-libx265 --enable-libxml2 --enable-libxvid --enable-libzimg --enable-libzmq --enable-libzvbi --enable-lv2 --enable-omx --enable-openal --enable-opencl --enable-opengl --enable-sdl2 --enable-pocketsphinx --enable-librsvg --enable-libmfx --enable-libdc1394 --enable-libdrm --enable-libiec61883 --enable-chromaprint --enable-frei0r --enable-libx264 --enable-shared --enable-version3 --disable-doc --disable-programs --enable-libaribb24 --enable-libopencore_amrnb --enable-libopencore_amrwb --enable-libtesseract --enable-libvo_amrwbenc --enable-libsmbclient\n",
      "  libavutil      56. 70.100 / 56. 70.100\n",
      "  libavcodec     58.134.100 / 58.134.100\n",
      "  libavformat    58. 76.100 / 58. 76.100\n",
      "  libavdevice    58. 13.100 / 58. 13.100\n",
      "  libavfilter     7.110.100 /  7.110.100\n",
      "  libswscale      5.  9.100 /  5.  9.100\n",
      "  libswresample   3.  9.100 /  3.  9.100\n",
      "  libpostproc    55.  9.100 / 55.  9.100\n",
      "Input #0, image2, from 'vids/im_lu_%04d.png':\n",
      "  Duration: 00:00:31.80, start: 0.000000, bitrate: N/A\n",
      "  Stream #0:0: Video: png, rgb24(pc), 256x256, 10 fps, 10 tbr, 10 tbn, 10 tbc\n",
      "Stream mapping:\n",
      "  Stream #0:0 -> #0:0 (png (native) -> h264 (libx264))\n",
      "Press [q] to stop, [?] for help\n",
      "[libx264 @ 0x555e1652e400] using cpu capabilities: MMX2 SSE2Fast SSSE3 SSE4.2 AVX FMA3 BMI2 AVX2\n",
      "[libx264 @ 0x555e1652e400] profile High, level 1.2, 4:2:0, 8-bit\n",
      "[libx264 @ 0x555e1652e400] 264 - core 163 r3060 5db6aa6 - H.264/MPEG-4 AVC codec - Copyleft 2003-2021 - http://www.videolan.org/x264.html - options: cabac=1 ref=3 deblock=1:0:0 analyse=0x3:0x113 me=hex subme=7 psy=1 psy_rd=1.00:0.00 mixed_ref=1 me_range=16 chroma_me=1 trellis=1 8x8dct=1 cqm=0 deadzone=21,11 fast_pskip=1 chroma_qp_offset=-2 threads=8 lookahead_threads=1 sliced_threads=0 nr=0 decimate=1 interlaced=0 bluray_compat=0 constrained_intra=0 bframes=3 b_pyramid=2 b_adapt=1 b_bias=0 direct=1 weightb=1 open_gop=0 weightp=2 keyint=250 keyint_min=10 scenecut=40 intra_refresh=0 rc_lookahead=40 rc=crf mbtree=1 crf=23.0 qcomp=0.60 qpmin=0 qpmax=69 qpstep=4 ip_ratio=1.40 aq=1:1.00\n",
      "Output #0, mp4, to 'vids/im_lu.mp4':\n",
      "  Metadata:\n",
      "    encoder         : Lavf58.76.100\n",
      "  Stream #0:0: Video: h264 (avc1 / 0x31637661), yuv420p(tv, progressive), 256x256, q=2-31, 10 fps, 10240 tbn\n",
      "    Metadata:\n",
      "      encoder         : Lavc58.134.100 libx264\n",
      "    Side data:\n",
      "      cpb: bitrate max/min/avg: 0/0/0 buffer size: 0 vbv_delay: N/A\n",
      "frame=  318 fps=0.0 q=-1.0 Lsize=     547kB time=00:00:31.50 bitrate= 142.2kbits/s speed=79.2x    \n",
      "video:543kB audio:0kB subtitle:0kB other streams:0kB global headers:0kB muxing overhead: 0.819193%\n",
      "[libx264 @ 0x555e1652e400] frame I:2     Avg QP:20.01  size:  7646\n",
      "[libx264 @ 0x555e1652e400] frame P:98    Avg QP:21.88  size:  3392\n",
      "[libx264 @ 0x555e1652e400] frame B:218   Avg QP:26.37  size:   950\n",
      "[libx264 @ 0x555e1652e400] consecutive B-frames:  5.3%  6.9%  8.5% 79.2%\n",
      "[libx264 @ 0x555e1652e400] mb I  I16..4: 19.3% 58.4% 22.3%\n",
      "[libx264 @ 0x555e1652e400] mb P  I16..4:  1.9%  4.1%  1.9%  P16..4: 27.3% 29.6% 18.2%  0.0%  0.0%    skip:17.2%\n",
      "[libx264 @ 0x555e1652e400] mb B  I16..4:  0.4%  0.8%  0.5%  B16..8: 27.6%  9.1%  2.8%  direct: 4.4%  skip:54.5%  L0:32.3% L1:39.4% BI:28.3%\n",
      "[libx264 @ 0x555e1652e400] 8x8 transform intra:51.0% inter:63.0%\n",
      "[libx264 @ 0x555e1652e400] coded y,uvDC,uvAC intra: 62.0% 80.4% 72.4% inter: 20.9% 33.3% 19.5%\n",
      "[libx264 @ 0x555e1652e400] i16 v,h,dc,p: 69% 12%  0% 19%\n",
      "[libx264 @ 0x555e1652e400] i8 v,h,dc,ddl,ddr,vr,hd,vl,hu: 33% 25%  7%  4%  5%  6%  6%  7%  7%\n",
      "[libx264 @ 0x555e1652e400] i4 v,h,dc,ddl,ddr,vr,hd,vl,hu: 29% 24% 12%  5%  6%  7%  7%  6%  5%\n",
      "[libx264 @ 0x555e1652e400] i8c dc,h,v,p: 21% 26% 41% 12%\n",
      "[libx264 @ 0x555e1652e400] Weighted P-Frames: Y:20.4% UV:18.4%\n",
      "[libx264 @ 0x555e1652e400] ref P L0: 59.9% 17.5% 15.3%  5.9%  1.3%\n",
      "[libx264 @ 0x555e1652e400] ref B L0: 90.5%  7.2%  2.3%\n",
      "[libx264 @ 0x555e1652e400] ref B L1: 97.6%  2.4%\n",
      "[libx264 @ 0x555e1652e400] kb/s:139.59\n",
      "ffmpeg version 4.4.2-0ubuntu0.22.04.1 Copyright (c) 2000-2021 the FFmpeg developers\n",
      "  built with gcc 11 (Ubuntu 11.2.0-19ubuntu1)\n",
      "  configuration: --prefix=/usr --extra-version=0ubuntu0.22.04.1 --toolchain=hardened --libdir=/usr/lib/x86_64-linux-gnu --incdir=/usr/include/x86_64-linux-gnu --arch=amd64 --enable-gpl --disable-stripping --enable-gnutls --enable-ladspa --enable-libaom --enable-libass --enable-libbluray --enable-libbs2b --enable-libcaca --enable-libcdio --enable-libcodec2 --enable-libdav1d --enable-libflite --enable-libfontconfig --enable-libfreetype --enable-libfribidi --enable-libgme --enable-libgsm --enable-libjack --enable-libmp3lame --enable-libmysofa --enable-libopenjpeg --enable-libopenmpt --enable-libopus --enable-libpulse --enable-librabbitmq --enable-librubberband --enable-libshine --enable-libsnappy --enable-libsoxr --enable-libspeex --enable-libsrt --enable-libssh --enable-libtheora --enable-libtwolame --enable-libvidstab --enable-libvorbis --enable-libvpx --enable-libwebp --enable-libx265 --enable-libxml2 --enable-libxvid --enable-libzimg --enable-libzmq --enable-libzvbi --enable-lv2 --enable-omx --enable-openal --enable-opencl --enable-opengl --enable-sdl2 --enable-pocketsphinx --enable-librsvg --enable-libmfx --enable-libdc1394 --enable-libdrm --enable-libiec61883 --enable-chromaprint --enable-frei0r --enable-libx264 --enable-shared\n",
      "  WARNING: library configuration mismatch\n",
      "  avcodec     configuration: --prefix=/usr --extra-version=0ubuntu0.22.04.1 --toolchain=hardened --libdir=/usr/lib/x86_64-linux-gnu --incdir=/usr/include/x86_64-linux-gnu --arch=amd64 --enable-gpl --disable-stripping --enable-gnutls --enable-ladspa --enable-libaom --enable-libass --enable-libbluray --enable-libbs2b --enable-libcaca --enable-libcdio --enable-libcodec2 --enable-libdav1d --enable-libflite --enable-libfontconfig --enable-libfreetype --enable-libfribidi --enable-libgme --enable-libgsm --enable-libjack --enable-libmp3lame --enable-libmysofa --enable-libopenjpeg --enable-libopenmpt --enable-libopus --enable-libpulse --enable-librabbitmq --enable-librubberband --enable-libshine --enable-libsnappy --enable-libsoxr --enable-libspeex --enable-libsrt --enable-libssh --enable-libtheora --enable-libtwolame --enable-libvidstab --enable-libvorbis --enable-libvpx --enable-libwebp --enable-libx265 --enable-libxml2 --enable-libxvid --enable-libzimg --enable-libzmq --enable-libzvbi --enable-lv2 --enable-omx --enable-openal --enable-opencl --enable-opengl --enable-sdl2 --enable-pocketsphinx --enable-librsvg --enable-libmfx --enable-libdc1394 --enable-libdrm --enable-libiec61883 --enable-chromaprint --enable-frei0r --enable-libx264 --enable-shared --enable-version3 --disable-doc --disable-programs --enable-libaribb24 --enable-libopencore_amrnb --enable-libopencore_amrwb --enable-libtesseract --enable-libvo_amrwbenc --enable-libsmbclient\n",
      "  libavutil      56. 70.100 / 56. 70.100\n",
      "  libavcodec     58.134.100 / 58.134.100\n",
      "  libavformat    58. 76.100 / 58. 76.100\n",
      "  libavdevice    58. 13.100 / 58. 13.100\n",
      "  libavfilter     7.110.100 /  7.110.100\n",
      "  libswscale      5.  9.100 /  5.  9.100\n",
      "  libswresample   3.  9.100 /  3.  9.100\n",
      "  libpostproc    55.  9.100 / 55.  9.100\n",
      "Input #0, image2, from 'vids/im_lrho_%04d.png':\n",
      "  Duration: 00:00:31.80, start: 0.000000, bitrate: N/A\n",
      "  Stream #0:0: Video: png, rgb24(pc), 256x256, 10 fps, 10 tbr, 10 tbn, 10 tbc\n",
      "Stream mapping:\n",
      "  Stream #0:0 -> #0:0 (png (native) -> h264 (libx264))\n",
      "Press [q] to stop, [?] for help\n",
      "[libx264 @ 0x55e83c7320c0] using cpu capabilities: MMX2 SSE2Fast SSSE3 SSE4.2 AVX FMA3 BMI2 AVX2\n",
      "[libx264 @ 0x55e83c7320c0] profile High, level 1.2, 4:2:0, 8-bit\n",
      "[libx264 @ 0x55e83c7320c0] 264 - core 163 r3060 5db6aa6 - H.264/MPEG-4 AVC codec - Copyleft 2003-2021 - http://www.videolan.org/x264.html - options: cabac=1 ref=3 deblock=1:0:0 analyse=0x3:0x113 me=hex subme=7 psy=1 psy_rd=1.00:0.00 mixed_ref=1 me_range=16 chroma_me=1 trellis=1 8x8dct=1 cqm=0 deadzone=21,11 fast_pskip=1 chroma_qp_offset=-2 threads=8 lookahead_threads=1 sliced_threads=0 nr=0 decimate=1 interlaced=0 bluray_compat=0 constrained_intra=0 bframes=3 b_pyramid=2 b_adapt=1 b_bias=0 direct=1 weightb=1 open_gop=0 weightp=2 keyint=250 keyint_min=10 scenecut=40 intra_refresh=0 rc_lookahead=40 rc=crf mbtree=1 crf=23.0 qcomp=0.60 qpmin=0 qpmax=69 qpstep=4 ip_ratio=1.40 aq=1:1.00\n",
      "Output #0, mp4, to 'vids/im_lrho.mp4':\n",
      "  Metadata:\n",
      "    encoder         : Lavf58.76.100\n",
      "  Stream #0:0: Video: h264 (avc1 / 0x31637661), yuv420p(tv, progressive), 256x256, q=2-31, 10 fps, 10240 tbn\n",
      "    Metadata:\n",
      "      encoder         : Lavc58.134.100 libx264\n",
      "    Side data:\n",
      "      cpb: bitrate max/min/avg: 0/0/0 buffer size: 0 vbv_delay: N/A\n",
      "frame=  318 fps=0.0 q=-1.0 Lsize=     380kB time=00:00:31.50 bitrate=  98.7kbits/s speed=84.3x    \n",
      "video:375kB audio:0kB subtitle:0kB other streams:0kB global headers:0kB muxing overhead: 1.176008%\n",
      "[libx264 @ 0x55e83c7320c0] frame I:2     Avg QP:19.51  size:  6464\n",
      "[libx264 @ 0x55e83c7320c0] frame P:105   Avg QP:21.41  size:  2373\n",
      "[libx264 @ 0x55e83c7320c0] frame B:211   Avg QP:25.67  size:   576\n",
      "[libx264 @ 0x55e83c7320c0] consecutive B-frames:  7.9%  8.8%  6.6% 76.7%\n",
      "[libx264 @ 0x55e83c7320c0] mb I  I16..4: 28.7% 52.9% 18.4%\n",
      "[libx264 @ 0x55e83c7320c0] mb P  I16..4:  2.3%  3.3%  1.0%  P16..4: 29.3% 27.8% 15.9%  0.0%  0.0%    skip:20.4%\n",
      "[libx264 @ 0x55e83c7320c0] mb B  I16..4:  0.4%  0.6%  0.2%  B16..8: 26.4%  7.2%  1.6%  direct: 2.3%  skip:61.3%  L0:32.5% L1:41.3% BI:26.2%\n",
      "[libx264 @ 0x55e83c7320c0] 8x8 transform intra:50.3% inter:71.9%\n",
      "[libx264 @ 0x55e83c7320c0] coded y,uvDC,uvAC intra: 53.3% 76.9% 67.0% inter: 15.6% 27.6% 14.2%\n",
      "[libx264 @ 0x55e83c7320c0] i16 v,h,dc,p: 68% 18%  0% 14%\n",
      "[libx264 @ 0x55e83c7320c0] i8 v,h,dc,ddl,ddr,vr,hd,vl,hu: 28% 26%  8%  5%  5%  6%  7%  7%  8%\n",
      "[libx264 @ 0x55e83c7320c0] i4 v,h,dc,ddl,ddr,vr,hd,vl,hu: 33% 25% 10%  4%  6%  6%  8%  4%  4%\n",
      "[libx264 @ 0x55e83c7320c0] i8c dc,h,v,p: 18% 28% 42% 13%\n",
      "[libx264 @ 0x55e83c7320c0] Weighted P-Frames: Y:19.0% UV:15.2%\n",
      "[libx264 @ 0x55e83c7320c0] ref P L0: 61.2% 16.5% 15.1%  6.2%  1.1%\n",
      "[libx264 @ 0x55e83c7320c0] ref B L0: 89.6%  8.1%  2.2%\n",
      "[libx264 @ 0x55e83c7320c0] ref B L1: 97.4%  2.6%\n",
      "[libx264 @ 0x55e83c7320c0] kb/s:96.50\n",
      "ffmpeg version 4.4.2-0ubuntu0.22.04.1 Copyright (c) 2000-2021 the FFmpeg developers\n",
      "  built with gcc 11 (Ubuntu 11.2.0-19ubuntu1)\n",
      "  configuration: --prefix=/usr --extra-version=0ubuntu0.22.04.1 --toolchain=hardened --libdir=/usr/lib/x86_64-linux-gnu --incdir=/usr/include/x86_64-linux-gnu --arch=amd64 --enable-gpl --disable-stripping --enable-gnutls --enable-ladspa --enable-libaom --enable-libass --enable-libbluray --enable-libbs2b --enable-libcaca --enable-libcdio --enable-libcodec2 --enable-libdav1d --enable-libflite --enable-libfontconfig --enable-libfreetype --enable-libfribidi --enable-libgme --enable-libgsm --enable-libjack --enable-libmp3lame --enable-libmysofa --enable-libopenjpeg --enable-libopenmpt --enable-libopus --enable-libpulse --enable-librabbitmq --enable-librubberband --enable-libshine --enable-libsnappy --enable-libsoxr --enable-libspeex --enable-libsrt --enable-libssh --enable-libtheora --enable-libtwolame --enable-libvidstab --enable-libvorbis --enable-libvpx --enable-libwebp --enable-libx265 --enable-libxml2 --enable-libxvid --enable-libzimg --enable-libzmq --enable-libzvbi --enable-lv2 --enable-omx --enable-openal --enable-opencl --enable-opengl --enable-sdl2 --enable-pocketsphinx --enable-librsvg --enable-libmfx --enable-libdc1394 --enable-libdrm --enable-libiec61883 --enable-chromaprint --enable-frei0r --enable-libx264 --enable-shared\n",
      "  WARNING: library configuration mismatch\n",
      "  avcodec     configuration: --prefix=/usr --extra-version=0ubuntu0.22.04.1 --toolchain=hardened --libdir=/usr/lib/x86_64-linux-gnu --incdir=/usr/include/x86_64-linux-gnu --arch=amd64 --enable-gpl --disable-stripping --enable-gnutls --enable-ladspa --enable-libaom --enable-libass --enable-libbluray --enable-libbs2b --enable-libcaca --enable-libcdio --enable-libcodec2 --enable-libdav1d --enable-libflite --enable-libfontconfig --enable-libfreetype --enable-libfribidi --enable-libgme --enable-libgsm --enable-libjack --enable-libmp3lame --enable-libmysofa --enable-libopenjpeg --enable-libopenmpt --enable-libopus --enable-libpulse --enable-librabbitmq --enable-librubberband --enable-libshine --enable-libsnappy --enable-libsoxr --enable-libspeex --enable-libsrt --enable-libssh --enable-libtheora --enable-libtwolame --enable-libvidstab --enable-libvorbis --enable-libvpx --enable-libwebp --enable-libx265 --enable-libxml2 --enable-libxvid --enable-libzimg --enable-libzmq --enable-libzvbi --enable-lv2 --enable-omx --enable-openal --enable-opencl --enable-opengl --enable-sdl2 --enable-pocketsphinx --enable-librsvg --enable-libmfx --enable-libdc1394 --enable-libdrm --enable-libiec61883 --enable-chromaprint --enable-frei0r --enable-libx264 --enable-shared --enable-version3 --disable-doc --disable-programs --enable-libaribb24 --enable-libopencore_amrnb --enable-libopencore_amrwb --enable-libtesseract --enable-libvo_amrwbenc --enable-libsmbclient\n",
      "  libavutil      56. 70.100 / 56. 70.100\n",
      "  libavcodec     58.134.100 / 58.134.100\n",
      "  libavformat    58. 76.100 / 58. 76.100\n",
      "  libavdevice    58. 13.100 / 58. 13.100\n",
      "  libavfilter     7.110.100 /  7.110.100\n",
      "  libswscale      5.  9.100 /  5.  9.100\n",
      "  libswresample   3.  9.100 /  3.  9.100\n",
      "  libpostproc    55.  9.100 / 55.  9.100\n",
      "Input #0, image2, from 'vids/im_gam_%04d.png':\n",
      "  Duration: 00:00:31.80, start: 0.000000, bitrate: N/A\n",
      "  Stream #0:0: Video: png, rgb24(pc), 256x256, 10 fps, 10 tbr, 10 tbn, 10 tbc\n",
      "Stream mapping:\n",
      "  Stream #0:0 -> #0:0 (png (native) -> h264 (libx264))\n",
      "Press [q] to stop, [?] for help\n",
      "[libx264 @ 0x5555edd7a900] using cpu capabilities: MMX2 SSE2Fast SSSE3 SSE4.2 AVX FMA3 BMI2 AVX2\n",
      "[libx264 @ 0x5555edd7a900] profile High, level 1.2, 4:2:0, 8-bit\n",
      "[libx264 @ 0x5555edd7a900] 264 - core 163 r3060 5db6aa6 - H.264/MPEG-4 AVC codec - Copyleft 2003-2021 - http://www.videolan.org/x264.html - options: cabac=1 ref=3 deblock=1:0:0 analyse=0x3:0x113 me=hex subme=7 psy=1 psy_rd=1.00:0.00 mixed_ref=1 me_range=16 chroma_me=1 trellis=1 8x8dct=1 cqm=0 deadzone=21,11 fast_pskip=1 chroma_qp_offset=-2 threads=8 lookahead_threads=1 sliced_threads=0 nr=0 decimate=1 interlaced=0 bluray_compat=0 constrained_intra=0 bframes=3 b_pyramid=2 b_adapt=1 b_bias=0 direct=1 weightb=1 open_gop=0 weightp=2 keyint=250 keyint_min=10 scenecut=40 intra_refresh=0 rc_lookahead=40 rc=crf mbtree=1 crf=23.0 qcomp=0.60 qpmin=0 qpmax=69 qpstep=4 ip_ratio=1.40 aq=1:1.00\n",
      "Output #0, mp4, to 'vids/im_gam.mp4':\n",
      "  Metadata:\n",
      "    encoder         : Lavf58.76.100\n",
      "  Stream #0:0: Video: h264 (avc1 / 0x31637661), yuv420p(tv, progressive), 256x256, q=2-31, 10 fps, 10240 tbn\n",
      "    Metadata:\n",
      "      encoder         : Lavc58.134.100 libx264\n",
      "    Side data:\n",
      "      cpb: bitrate max/min/avg: 0/0/0 buffer size: 0 vbv_delay: N/A\n",
      "frame=  318 fps=0.0 q=-1.0 Lsize=     336kB time=00:00:31.50 bitrate=  87.5kbits/s speed=96.8x    \n",
      "video:332kB audio:0kB subtitle:0kB other streams:0kB global headers:0kB muxing overhead: 1.355167%\n",
      "[libx264 @ 0x5555edd7a900] frame I:8     Avg QP:15.38  size:  3331\n",
      "[libx264 @ 0x5555edd7a900] frame P:95    Avg QP:19.95  size:  1651\n",
      "[libx264 @ 0x5555edd7a900] frame B:215   Avg QP:22.18  size:   725\n",
      "[libx264 @ 0x5555edd7a900] consecutive B-frames:  6.0%  8.8%  8.5% 76.7%\n",
      "[libx264 @ 0x5555edd7a900] mb I  I16..4: 28.8% 56.2% 15.0%\n",
      "[libx264 @ 0x5555edd7a900] mb P  I16..4:  4.9%  9.6%  1.4%  P16..4: 35.6% 15.7%  8.1%  0.0%  0.0%    skip:24.7%\n",
      "[libx264 @ 0x5555edd7a900] mb B  I16..4:  1.1%  1.0%  0.4%  B16..8: 31.5%  6.2%  1.5%  direct: 5.7%  skip:52.6%  L0:40.5% L1:50.5% BI: 9.0%\n",
      "[libx264 @ 0x5555edd7a900] 8x8 transform intra:55.8% inter:80.3%\n",
      "[libx264 @ 0x5555edd7a900] coded y,uvDC,uvAC intra: 29.6% 72.2% 58.3% inter: 7.3% 28.1% 12.3%\n",
      "[libx264 @ 0x5555edd7a900] i16 v,h,dc,p: 48% 26% 11% 14%\n",
      "[libx264 @ 0x5555edd7a900] i8 v,h,dc,ddl,ddr,vr,hd,vl,hu: 29% 15% 30%  4%  4%  5%  4%  5%  4%\n",
      "[libx264 @ 0x5555edd7a900] i4 v,h,dc,ddl,ddr,vr,hd,vl,hu: 28% 22% 12%  5%  7%  8%  7%  7%  3%\n",
      "[libx264 @ 0x5555edd7a900] i8c dc,h,v,p: 34% 22% 30% 14%\n",
      "[libx264 @ 0x5555edd7a900] Weighted P-Frames: Y:14.7% UV:9.5%\n",
      "[libx264 @ 0x5555edd7a900] ref P L0: 60.3%  5.4% 20.9% 11.4%  2.1%\n",
      "[libx264 @ 0x5555edd7a900] ref B L0: 83.3% 12.9%  3.8%\n",
      "[libx264 @ 0x5555edd7a900] ref B L1: 96.0%  4.0%\n",
      "[libx264 @ 0x5555edd7a900] kb/s:85.35\n",
      "ffmpeg version 4.4.2-0ubuntu0.22.04.1 Copyright (c) 2000-2021 the FFmpeg developers\n",
      "  built with gcc 11 (Ubuntu 11.2.0-19ubuntu1)\n",
      "  configuration: --prefix=/usr --extra-version=0ubuntu0.22.04.1 --toolchain=hardened --libdir=/usr/lib/x86_64-linux-gnu --incdir=/usr/include/x86_64-linux-gnu --arch=amd64 --enable-gpl --disable-stripping --enable-gnutls --enable-ladspa --enable-libaom --enable-libass --enable-libbluray --enable-libbs2b --enable-libcaca --enable-libcdio --enable-libcodec2 --enable-libdav1d --enable-libflite --enable-libfontconfig --enable-libfreetype --enable-libfribidi --enable-libgme --enable-libgsm --enable-libjack --enable-libmp3lame --enable-libmysofa --enable-libopenjpeg --enable-libopenmpt --enable-libopus --enable-libpulse --enable-librabbitmq --enable-librubberband --enable-libshine --enable-libsnappy --enable-libsoxr --enable-libspeex --enable-libsrt --enable-libssh --enable-libtheora --enable-libtwolame --enable-libvidstab --enable-libvorbis --enable-libvpx --enable-libwebp --enable-libx265 --enable-libxml2 --enable-libxvid --enable-libzimg --enable-libzmq --enable-libzvbi --enable-lv2 --enable-omx --enable-openal --enable-opencl --enable-opengl --enable-sdl2 --enable-pocketsphinx --enable-librsvg --enable-libmfx --enable-libdc1394 --enable-libdrm --enable-libiec61883 --enable-chromaprint --enable-frei0r --enable-libx264 --enable-shared\n",
      "  WARNING: library configuration mismatch\n",
      "  avcodec     configuration: --prefix=/usr --extra-version=0ubuntu0.22.04.1 --toolchain=hardened --libdir=/usr/lib/x86_64-linux-gnu --incdir=/usr/include/x86_64-linux-gnu --arch=amd64 --enable-gpl --disable-stripping --enable-gnutls --enable-ladspa --enable-libaom --enable-libass --enable-libbluray --enable-libbs2b --enable-libcaca --enable-libcdio --enable-libcodec2 --enable-libdav1d --enable-libflite --enable-libfontconfig --enable-libfreetype --enable-libfribidi --enable-libgme --enable-libgsm --enable-libjack --enable-libmp3lame --enable-libmysofa --enable-libopenjpeg --enable-libopenmpt --enable-libopus --enable-libpulse --enable-librabbitmq --enable-librubberband --enable-libshine --enable-libsnappy --enable-libsoxr --enable-libspeex --enable-libsrt --enable-libssh --enable-libtheora --enable-libtwolame --enable-libvidstab --enable-libvorbis --enable-libvpx --enable-libwebp --enable-libx265 --enable-libxml2 --enable-libxvid --enable-libzimg --enable-libzmq --enable-libzvbi --enable-lv2 --enable-omx --enable-openal --enable-opencl --enable-opengl --enable-sdl2 --enable-pocketsphinx --enable-librsvg --enable-libmfx --enable-libdc1394 --enable-libdrm --enable-libiec61883 --enable-chromaprint --enable-frei0r --enable-libx264 --enable-shared --enable-version3 --disable-doc --disable-programs --enable-libaribb24 --enable-libopencore_amrnb --enable-libopencore_amrwb --enable-libtesseract --enable-libvo_amrwbenc --enable-libsmbclient\n",
      "  libavutil      56. 70.100 / 56. 70.100\n",
      "  libavcodec     58.134.100 / 58.134.100\n",
      "  libavformat    58. 76.100 / 58. 76.100\n",
      "  libavdevice    58. 13.100 / 58. 13.100\n",
      "  libavfilter     7.110.100 /  7.110.100\n",
      "  libswscale      5.  9.100 /  5.  9.100\n",
      "  libswresample   3.  9.100 /  3.  9.100\n",
      "  libpostproc    55.  9.100 / 55.  9.100\n",
      "Input #0, image2, from 'vids/im_bsq_%04d.png':\n",
      "  Duration: 00:00:31.80, start: 0.000000, bitrate: N/A\n",
      "  Stream #0:0: Video: png, rgb24(pc), 256x256, 10 fps, 10 tbr, 10 tbn, 10 tbc\n",
      "Stream mapping:\n",
      "  Stream #0:0 -> #0:0 (png (native) -> h264 (libx264))\n",
      "Press [q] to stop, [?] for help\n",
      "[libx264 @ 0x5631348754c0] using cpu capabilities: MMX2 SSE2Fast SSSE3 SSE4.2 AVX FMA3 BMI2 AVX2\n",
      "[libx264 @ 0x5631348754c0] profile High, level 1.2, 4:2:0, 8-bit\n",
      "[libx264 @ 0x5631348754c0] 264 - core 163 r3060 5db6aa6 - H.264/MPEG-4 AVC codec - Copyleft 2003-2021 - http://www.videolan.org/x264.html - options: cabac=1 ref=3 deblock=1:0:0 analyse=0x3:0x113 me=hex subme=7 psy=1 psy_rd=1.00:0.00 mixed_ref=1 me_range=16 chroma_me=1 trellis=1 8x8dct=1 cqm=0 deadzone=21,11 fast_pskip=1 chroma_qp_offset=-2 threads=8 lookahead_threads=1 sliced_threads=0 nr=0 decimate=1 interlaced=0 bluray_compat=0 constrained_intra=0 bframes=3 b_pyramid=2 b_adapt=1 b_bias=0 direct=1 weightb=1 open_gop=0 weightp=2 keyint=250 keyint_min=10 scenecut=40 intra_refresh=0 rc_lookahead=40 rc=crf mbtree=1 crf=23.0 qcomp=0.60 qpmin=0 qpmax=69 qpstep=4 ip_ratio=1.40 aq=1:1.00\n",
      "Output #0, mp4, to 'vids/im_bsq.mp4':\n",
      "  Metadata:\n",
      "    encoder         : Lavf58.76.100\n",
      "  Stream #0:0: Video: h264 (avc1 / 0x31637661), yuv420p(tv, progressive), 256x256, q=2-31, 10 fps, 10240 tbn\n",
      "    Metadata:\n",
      "      encoder         : Lavc58.134.100 libx264\n",
      "    Side data:\n",
      "      cpb: bitrate max/min/avg: 0/0/0 buffer size: 0 vbv_delay: N/A\n",
      "frame=  318 fps=0.0 q=-1.0 Lsize=     250kB time=00:00:31.50 bitrate=  65.1kbits/s speed= 120x    \n",
      "video:246kB audio:0kB subtitle:0kB other streams:0kB global headers:0kB muxing overhead: 1.800266%\n",
      "[libx264 @ 0x5631348754c0] frame I:3     Avg QP:14.20  size:  3876\n",
      "[libx264 @ 0x5631348754c0] frame P:100   Avg QP:18.92  size:  1400\n",
      "[libx264 @ 0x5631348754c0] frame B:215   Avg QP:21.98  size:   462\n",
      "[libx264 @ 0x5631348754c0] consecutive B-frames:  7.2%  6.3%  4.7% 81.8%\n",
      "[libx264 @ 0x5631348754c0] mb I  I16..4: 35.0% 46.0% 19.0%\n",
      "[libx264 @ 0x5631348754c0] mb P  I16..4:  1.4%  3.2%  0.9%  P16..4: 20.0% 13.7%  8.7%  0.0%  0.0%    skip:52.2%\n",
      "[libx264 @ 0x5631348754c0] mb B  I16..4:  0.3%  0.5%  0.2%  B16..8: 18.3%  4.5%  1.1%  direct: 2.1%  skip:73.0%  L0:42.2% L1:45.3% BI:12.5%\n",
      "[libx264 @ 0x5631348754c0] 8x8 transform intra:53.3% inter:71.5%\n",
      "[libx264 @ 0x5631348754c0] coded y,uvDC,uvAC intra: 39.4% 73.3% 61.7% inter: 5.6% 18.3% 10.5%\n",
      "[libx264 @ 0x5631348754c0] i16 v,h,dc,p: 43% 18%  7% 32%\n",
      "[libx264 @ 0x5631348754c0] i8 v,h,dc,ddl,ddr,vr,hd,vl,hu: 32% 12% 28%  4%  4%  6%  4%  7%  3%\n",
      "[libx264 @ 0x5631348754c0] i4 v,h,dc,ddl,ddr,vr,hd,vl,hu: 36% 14% 12%  5%  7%  9%  5%  9%  4%\n",
      "[libx264 @ 0x5631348754c0] i8c dc,h,v,p: 36% 15% 27% 22%\n",
      "[libx264 @ 0x5631348754c0] Weighted P-Frames: Y:2.0% UV:2.0%\n",
      "[libx264 @ 0x5631348754c0] ref P L0: 67.2%  8.0% 15.8%  8.5%  0.5%\n",
      "[libx264 @ 0x5631348754c0] ref B L0: 84.7% 12.2%  3.1%\n",
      "[libx264 @ 0x5631348754c0] ref B L1: 95.0%  5.0%\n",
      "[libx264 @ 0x5631348754c0] kb/s:63.14\n",
      "ffmpeg version 4.4.2-0ubuntu0.22.04.1 Copyright (c) 2000-2021 the FFmpeg developers\n",
      "  built with gcc 11 (Ubuntu 11.2.0-19ubuntu1)\n",
      "  configuration: --prefix=/usr --extra-version=0ubuntu0.22.04.1 --toolchain=hardened --libdir=/usr/lib/x86_64-linux-gnu --incdir=/usr/include/x86_64-linux-gnu --arch=amd64 --enable-gpl --disable-stripping --enable-gnutls --enable-ladspa --enable-libaom --enable-libass --enable-libbluray --enable-libbs2b --enable-libcaca --enable-libcdio --enable-libcodec2 --enable-libdav1d --enable-libflite --enable-libfontconfig --enable-libfreetype --enable-libfribidi --enable-libgme --enable-libgsm --enable-libjack --enable-libmp3lame --enable-libmysofa --enable-libopenjpeg --enable-libopenmpt --enable-libopus --enable-libpulse --enable-librabbitmq --enable-librubberband --enable-libshine --enable-libsnappy --enable-libsoxr --enable-libspeex --enable-libsrt --enable-libssh --enable-libtheora --enable-libtwolame --enable-libvidstab --enable-libvorbis --enable-libvpx --enable-libwebp --enable-libx265 --enable-libxml2 --enable-libxvid --enable-libzimg --enable-libzmq --enable-libzvbi --enable-lv2 --enable-omx --enable-openal --enable-opencl --enable-opengl --enable-sdl2 --enable-pocketsphinx --enable-librsvg --enable-libmfx --enable-libdc1394 --enable-libdrm --enable-libiec61883 --enable-chromaprint --enable-frei0r --enable-libx264 --enable-shared\n",
      "  WARNING: library configuration mismatch\n",
      "  avcodec     configuration: --prefix=/usr --extra-version=0ubuntu0.22.04.1 --toolchain=hardened --libdir=/usr/lib/x86_64-linux-gnu --incdir=/usr/include/x86_64-linux-gnu --arch=amd64 --enable-gpl --disable-stripping --enable-gnutls --enable-ladspa --enable-libaom --enable-libass --enable-libbluray --enable-libbs2b --enable-libcaca --enable-libcdio --enable-libcodec2 --enable-libdav1d --enable-libflite --enable-libfontconfig --enable-libfreetype --enable-libfribidi --enable-libgme --enable-libgsm --enable-libjack --enable-libmp3lame --enable-libmysofa --enable-libopenjpeg --enable-libopenmpt --enable-libopus --enable-libpulse --enable-librabbitmq --enable-librubberband --enable-libshine --enable-libsnappy --enable-libsoxr --enable-libspeex --enable-libsrt --enable-libssh --enable-libtheora --enable-libtwolame --enable-libvidstab --enable-libvorbis --enable-libvpx --enable-libwebp --enable-libx265 --enable-libxml2 --enable-libxvid --enable-libzimg --enable-libzmq --enable-libzvbi --enable-lv2 --enable-omx --enable-openal --enable-opencl --enable-opengl --enable-sdl2 --enable-pocketsphinx --enable-librsvg --enable-libmfx --enable-libdc1394 --enable-libdrm --enable-libiec61883 --enable-chromaprint --enable-frei0r --enable-libx264 --enable-shared --enable-version3 --disable-doc --disable-programs --enable-libaribb24 --enable-libopencore_amrnb --enable-libopencore_amrwb --enable-libtesseract --enable-libvo_amrwbenc --enable-libsmbclient\n",
      "  libavutil      56. 70.100 / 56. 70.100\n",
      "  libavcodec     58.134.100 / 58.134.100\n",
      "  libavformat    58. 76.100 / 58. 76.100\n",
      "  libavdevice    58. 13.100 / 58. 13.100\n",
      "  libavfilter     7.110.100 /  7.110.100\n",
      "  libswscale      5.  9.100 /  5.  9.100\n",
      "  libswresample   3.  9.100 /  3.  9.100\n",
      "  libpostproc    55.  9.100 / 55.  9.100\n",
      "Input #0, image2, from 'vids/im_u_%04d.png':\n",
      "  Duration: 00:00:31.80, start: 0.000000, bitrate: N/A\n",
      "  Stream #0:0: Video: png, rgb24(pc), 256x256, 10 fps, 10 tbr, 10 tbn, 10 tbc\n",
      "Stream mapping:\n",
      "  Stream #0:0 -> #0:0 (png (native) -> h264 (libx264))\n",
      "Press [q] to stop, [?] for help\n",
      "[libx264 @ 0x5572da895600] using cpu capabilities: MMX2 SSE2Fast SSSE3 SSE4.2 AVX FMA3 BMI2 AVX2\n",
      "[libx264 @ 0x5572da895600] profile High, level 1.2, 4:2:0, 8-bit\n",
      "[libx264 @ 0x5572da895600] 264 - core 163 r3060 5db6aa6 - H.264/MPEG-4 AVC codec - Copyleft 2003-2021 - http://www.videolan.org/x264.html - options: cabac=1 ref=3 deblock=1:0:0 analyse=0x3:0x113 me=hex subme=7 psy=1 psy_rd=1.00:0.00 mixed_ref=1 me_range=16 chroma_me=1 trellis=1 8x8dct=1 cqm=0 deadzone=21,11 fast_pskip=1 chroma_qp_offset=-2 threads=8 lookahead_threads=1 sliced_threads=0 nr=0 decimate=1 interlaced=0 bluray_compat=0 constrained_intra=0 bframes=3 b_pyramid=2 b_adapt=1 b_bias=0 direct=1 weightb=1 open_gop=0 weightp=2 keyint=250 keyint_min=10 scenecut=40 intra_refresh=0 rc_lookahead=40 rc=crf mbtree=1 crf=23.0 qcomp=0.60 qpmin=0 qpmax=69 qpstep=4 ip_ratio=1.40 aq=1:1.00\n",
      "Output #0, mp4, to 'vids/im_u.mp4':\n",
      "  Metadata:\n",
      "    encoder         : Lavf58.76.100\n",
      "  Stream #0:0: Video: h264 (avc1 / 0x31637661), yuv420p(tv, progressive), 256x256, q=2-31, 10 fps, 10240 tbn\n",
      "    Metadata:\n",
      "      encoder         : Lavc58.134.100 libx264\n",
      "    Side data:\n",
      "      cpb: bitrate max/min/avg: 0/0/0 buffer size: 0 vbv_delay: N/A\n",
      "frame=  318 fps=0.0 q=-1.0 Lsize=     236kB time=00:00:31.50 bitrate=  61.3kbits/s speed= 117x    \n",
      "video:231kB audio:0kB subtitle:0kB other streams:0kB global headers:0kB muxing overhead: 1.926433%\n",
      "[libx264 @ 0x5572da895600] frame I:4     Avg QP:14.84  size:  4589\n",
      "[libx264 @ 0x5572da895600] frame P:98    Avg QP:19.77  size:  1115\n",
      "[libx264 @ 0x5572da895600] frame B:216   Avg QP:22.28  size:   501\n",
      "[libx264 @ 0x5572da895600] consecutive B-frames:  6.6%  6.3%  6.6% 80.5%\n",
      "[libx264 @ 0x5572da895600] mb I  I16..4: 30.5% 43.8% 25.7%\n",
      "[libx264 @ 0x5572da895600] mb P  I16..4:  1.1%  3.1%  0.9%  P16..4: 19.3% 12.5%  7.4%  0.0%  0.0%    skip:55.7%\n",
      "[libx264 @ 0x5572da895600] mb B  I16..4:  0.3%  0.3%  0.2%  B16..8: 18.9%  5.1%  1.0%  direct: 1.6%  skip:72.6%  L0:45.4% L1:47.2% BI: 7.3%\n",
      "[libx264 @ 0x5572da895600] 8x8 transform intra:51.8% inter:64.6%\n",
      "[libx264 @ 0x5572da895600] coded y,uvDC,uvAC intra: 28.0% 56.2% 51.0% inter: 3.8% 18.0% 13.0%\n",
      "[libx264 @ 0x5572da895600] i16 v,h,dc,p: 70% 14% 10%  7%\n",
      "[libx264 @ 0x5572da895600] i8 v,h,dc,ddl,ddr,vr,hd,vl,hu: 25%  8% 48%  3%  3%  4%  3%  4%  3%\n",
      "[libx264 @ 0x5572da895600] i4 v,h,dc,ddl,ddr,vr,hd,vl,hu: 29% 18% 28%  5%  4%  4%  5%  4%  4%\n",
      "[libx264 @ 0x5572da895600] i8c dc,h,v,p: 53% 15% 25%  7%\n",
      "[libx264 @ 0x5572da895600] Weighted P-Frames: Y:17.3% UV:12.2%\n",
      "[libx264 @ 0x5572da895600] ref P L0: 60.4%  5.2% 21.7% 10.0%  2.7%\n",
      "[libx264 @ 0x5572da895600] ref B L0: 80.4% 14.8%  4.8%\n",
      "[libx264 @ 0x5572da895600] ref B L1: 94.0%  6.0%\n",
      "[libx264 @ 0x5572da895600] kb/s:59.36\n",
      "ffmpeg version 4.4.2-0ubuntu0.22.04.1 Copyright (c) 2000-2021 the FFmpeg developers\n",
      "  built with gcc 11 (Ubuntu 11.2.0-19ubuntu1)\n",
      "  configuration: --prefix=/usr --extra-version=0ubuntu0.22.04.1 --toolchain=hardened --libdir=/usr/lib/x86_64-linux-gnu --incdir=/usr/include/x86_64-linux-gnu --arch=amd64 --enable-gpl --disable-stripping --enable-gnutls --enable-ladspa --enable-libaom --enable-libass --enable-libbluray --enable-libbs2b --enable-libcaca --enable-libcdio --enable-libcodec2 --enable-libdav1d --enable-libflite --enable-libfontconfig --enable-libfreetype --enable-libfribidi --enable-libgme --enable-libgsm --enable-libjack --enable-libmp3lame --enable-libmysofa --enable-libopenjpeg --enable-libopenmpt --enable-libopus --enable-libpulse --enable-librabbitmq --enable-librubberband --enable-libshine --enable-libsnappy --enable-libsoxr --enable-libspeex --enable-libsrt --enable-libssh --enable-libtheora --enable-libtwolame --enable-libvidstab --enable-libvorbis --enable-libvpx --enable-libwebp --enable-libx265 --enable-libxml2 --enable-libxvid --enable-libzimg --enable-libzmq --enable-libzvbi --enable-lv2 --enable-omx --enable-openal --enable-opencl --enable-opengl --enable-sdl2 --enable-pocketsphinx --enable-librsvg --enable-libmfx --enable-libdc1394 --enable-libdrm --enable-libiec61883 --enable-chromaprint --enable-frei0r --enable-libx264 --enable-shared\n",
      "  WARNING: library configuration mismatch\n",
      "  avcodec     configuration: --prefix=/usr --extra-version=0ubuntu0.22.04.1 --toolchain=hardened --libdir=/usr/lib/x86_64-linux-gnu --incdir=/usr/include/x86_64-linux-gnu --arch=amd64 --enable-gpl --disable-stripping --enable-gnutls --enable-ladspa --enable-libaom --enable-libass --enable-libbluray --enable-libbs2b --enable-libcaca --enable-libcdio --enable-libcodec2 --enable-libdav1d --enable-libflite --enable-libfontconfig --enable-libfreetype --enable-libfribidi --enable-libgme --enable-libgsm --enable-libjack --enable-libmp3lame --enable-libmysofa --enable-libopenjpeg --enable-libopenmpt --enable-libopus --enable-libpulse --enable-librabbitmq --enable-librubberband --enable-libshine --enable-libsnappy --enable-libsoxr --enable-libspeex --enable-libsrt --enable-libssh --enable-libtheora --enable-libtwolame --enable-libvidstab --enable-libvorbis --enable-libvpx --enable-libwebp --enable-libx265 --enable-libxml2 --enable-libxvid --enable-libzimg --enable-libzmq --enable-libzvbi --enable-lv2 --enable-omx --enable-openal --enable-opencl --enable-opengl --enable-sdl2 --enable-pocketsphinx --enable-librsvg --enable-libmfx --enable-libdc1394 --enable-libdrm --enable-libiec61883 --enable-chromaprint --enable-frei0r --enable-libx264 --enable-shared --enable-version3 --disable-doc --disable-programs --enable-libaribb24 --enable-libopencore_amrnb --enable-libopencore_amrwb --enable-libtesseract --enable-libvo_amrwbenc --enable-libsmbclient\n",
      "  libavutil      56. 70.100 / 56. 70.100\n",
      "  libavcodec     58.134.100 / 58.134.100\n",
      "  libavformat    58. 76.100 / 58. 76.100\n",
      "  libavdevice    58. 13.100 / 58. 13.100\n",
      "  libavfilter     7.110.100 /  7.110.100\n",
      "  libswscale      5.  9.100 /  5.  9.100\n",
      "  libswresample   3.  9.100 /  3.  9.100\n",
      "  libpostproc    55.  9.100 / 55.  9.100\n",
      "Input #0, image2, from 'vids/im_rho_%04d.png':\n",
      "  Duration: 00:00:31.80, start: 0.000000, bitrate: N/A\n",
      "  Stream #0:0: Video: png, rgb24(pc), 256x256, 10 fps, 10 tbr, 10 tbn, 10 tbc\n",
      "Stream mapping:\n",
      "  Stream #0:0 -> #0:0 (png (native) -> h264 (libx264))\n",
      "Press [q] to stop, [?] for help\n",
      "[libx264 @ 0x55ca69ad3ec0] using cpu capabilities: MMX2 SSE2Fast SSSE3 SSE4.2 AVX FMA3 BMI2 AVX2\n",
      "[libx264 @ 0x55ca69ad3ec0] profile High, level 1.2, 4:2:0, 8-bit\n",
      "[libx264 @ 0x55ca69ad3ec0] 264 - core 163 r3060 5db6aa6 - H.264/MPEG-4 AVC codec - Copyleft 2003-2021 - http://www.videolan.org/x264.html - options: cabac=1 ref=3 deblock=1:0:0 analyse=0x3:0x113 me=hex subme=7 psy=1 psy_rd=1.00:0.00 mixed_ref=1 me_range=16 chroma_me=1 trellis=1 8x8dct=1 cqm=0 deadzone=21,11 fast_pskip=1 chroma_qp_offset=-2 threads=8 lookahead_threads=1 sliced_threads=0 nr=0 decimate=1 interlaced=0 bluray_compat=0 constrained_intra=0 bframes=3 b_pyramid=2 b_adapt=1 b_bias=0 direct=1 weightb=1 open_gop=0 weightp=2 keyint=250 keyint_min=10 scenecut=40 intra_refresh=0 rc_lookahead=40 rc=crf mbtree=1 crf=23.0 qcomp=0.60 qpmin=0 qpmax=69 qpstep=4 ip_ratio=1.40 aq=1:1.00\n",
      "Output #0, mp4, to 'vids/im_rho.mp4':\n",
      "  Metadata:\n",
      "    encoder         : Lavf58.76.100\n",
      "  Stream #0:0: Video: h264 (avc1 / 0x31637661), yuv420p(tv, progressive), 256x256, q=2-31, 10 fps, 10240 tbn\n",
      "    Metadata:\n",
      "      encoder         : Lavc58.134.100 libx264\n",
      "    Side data:\n",
      "      cpb: bitrate max/min/avg: 0/0/0 buffer size: 0 vbv_delay: N/A\n",
      "frame=  318 fps=0.0 q=-1.0 Lsize=     219kB time=00:00:31.50 bitrate=  57.0kbits/s speed=  99x    \n",
      "video:215kB audio:0kB subtitle:0kB other streams:0kB global headers:0kB muxing overhead: 1.969130%\n",
      "[libx264 @ 0x55ca69ad3ec0] frame I:2     Avg QP:12.97  size:  4768\n",
      "[libx264 @ 0x55ca69ad3ec0] frame P:123   Avg QP:18.57  size:  1108\n",
      "[libx264 @ 0x55ca69ad3ec0] frame B:193   Avg QP:19.68  size:   381\n",
      "[libx264 @ 0x55ca69ad3ec0] consecutive B-frames: 14.5%  8.8% 15.1% 61.6%\n",
      "[libx264 @ 0x55ca69ad3ec0] mb I  I16..4: 52.3% 26.0% 21.7%\n",
      "[libx264 @ 0x55ca69ad3ec0] mb P  I16..4:  1.6%  1.6%  0.3%  P16..4: 19.8% 13.5%  7.7%  0.0%  0.0%    skip:55.5%\n",
      "[libx264 @ 0x55ca69ad3ec0] mb B  I16..4:  0.3%  0.2%  0.0%  B16..8: 18.2%  4.1%  0.8%  direct: 1.9%  skip:74.5%  L0:45.4% L1:45.3% BI: 9.3%\n",
      "[libx264 @ 0x55ca69ad3ec0] 8x8 transform intra:38.9% inter:73.6%\n",
      "[libx264 @ 0x55ca69ad3ec0] coded y,uvDC,uvAC intra: 23.6% 62.5% 52.0% inter: 5.1% 18.6% 11.2%\n",
      "[libx264 @ 0x55ca69ad3ec0] i16 v,h,dc,p: 51% 34%  8%  7%\n",
      "[libx264 @ 0x55ca69ad3ec0] i8 v,h,dc,ddl,ddr,vr,hd,vl,hu: 19% 16% 39%  3%  3%  5%  5%  4%  6%\n",
      "[libx264 @ 0x55ca69ad3ec0] i4 v,h,dc,ddl,ddr,vr,hd,vl,hu: 20% 26% 21%  4%  8%  7%  7%  4%  3%\n",
      "[libx264 @ 0x55ca69ad3ec0] i8c dc,h,v,p: 38% 32% 20% 10%\n",
      "[libx264 @ 0x55ca69ad3ec0] Weighted P-Frames: Y:13.0% UV:2.4%\n",
      "[libx264 @ 0x55ca69ad3ec0] ref P L0: 64.3%  8.6% 16.6%  7.3%  3.2%\n",
      "[libx264 @ 0x55ca69ad3ec0] ref B L0: 84.1% 13.1%  2.8%\n",
      "[libx264 @ 0x55ca69ad3ec0] ref B L1: 95.5%  4.5%\n",
      "[libx264 @ 0x55ca69ad3ec0] kb/s:55.21\n"
     ]
    }
   ],
   "source": [
    "for file in fileList:\n",
    "    command = ['ffmpeg','-framerate','10','-i', f'vids/{file}_%04d.png','-c:v','libx264','-vf','pad=ceil(iw/2)*2:ceil(ih/2)*2',\n",
    "            '-pix_fmt','yuv420p', f\"vids/{file}.mp4\", \"-y\"]\n",
    "    result = subprocess.run(command)\n",
    "subprocess.run('cd vids/; rm *.png')"
   ]
  }
 ],
 "metadata": {
  "kernelspec": {
   "display_name": "Python 3",
   "language": "python",
   "name": "python3"
  },
  "language_info": {
   "codemirror_mode": {
    "name": "ipython",
    "version": 3
   },
   "file_extension": ".py",
   "mimetype": "text/x-python",
   "name": "python",
   "nbconvert_exporter": "python",
   "pygments_lexer": "ipython3",
   "version": "3.10.12"
  }
 },
 "nbformat": 4,
 "nbformat_minor": 5
}
